<svg xmlns="http://www.w3.org/2000/svg" xmlns:xlink="http://www.w3.org/1999/xlink" width="500" zoomAndPan="magnify" viewBox="0 0 375 374.999991" height="500" preserveAspectRatio="xMidYMid meet" version="1.0"><defs><clipPath id="d613e2312a"><path d="M 327 179 L 371.082031 179 L 371.082031 192 L 327 192 Z M 327 179 " clip-rule="nonzero"/></clipPath><clipPath id="cea916b3b3"><path d="M 3.582031 95 L 327 95 L 327 332.683594 L 3.582031 332.683594 Z M 3.582031 95 " clip-rule="nonzero"/></clipPath><clipPath id="be3abe18d6"><path d="M 221 42.433594 L 235 42.433594 L 235 87 L 221 87 Z M 221 42.433594 " clip-rule="nonzero"/></clipPath><clipPath id="f89dafe085"><path d="M 168.574219 134.648438 L 284.074219 134.648438 L 284.074219 187.898438 L 168.574219 187.898438 Z M 168.574219 134.648438 " clip-rule="nonzero"/></clipPath><clipPath id="02caf2c33f"><path d="M 223.714844 134.648438 L 283.929688 134.648438 L 283.929688 192.398438 L 223.714844 192.398438 Z M 223.714844 134.648438 " clip-rule="nonzero"/></clipPath><clipPath id="2119b59323"><path d="M 249.414062 134.648438 L 283.863281 134.648438 L 283.863281 229.148438 L 249.414062 229.148438 Z M 249.414062 134.648438 " clip-rule="nonzero"/></clipPath><clipPath id="35756914ac"><path d="M 236.992188 134.648438 L 284.074219 134.648438 L 284.074219 202.898438 L 236.992188 202.898438 Z M 236.992188 134.648438 " clip-rule="nonzero"/></clipPath></defs><path fill="#fbe194" d="M 306.167969 185.945312 C 306.167969 200.464844 302.101562 214.597656 294.550781 226.792969 C 287.582031 223.503906 279.839844 221.761719 271.515625 221.761719 C 267.640625 221.761719 263.964844 222.148438 260.285156 222.921875 C 253.898438 199.691406 232.410156 182.847656 207.628906 182.847656 C 195.238281 182.847656 183.234375 187.105469 173.554688 194.851562 C 167.359375 186.332031 159.421875 179.363281 150.519531 174.136719 C 156.324219 136.191406 188.851562 107.925781 227.761719 107.925781 C 271.128906 107.734375 306.167969 142.773438 306.167969 185.945312 Z M 306.167969 185.945312 " fill-opacity="1" fill-rule="nonzero"/><path fill="#ffffff" d="M 314.492188 277.128906 C 314.492188 300.554688 295.328125 319.914062 271.707031 319.914062 L 60.304688 319.914062 C 60.109375 319.914062 59.722656 319.914062 59.527344 319.914062 L 58.175781 319.914062 C 34.941406 319.914062 16.164062 300.941406 16.164062 277.902344 C 16.164062 258.347656 29.910156 241.121094 49.074219 236.859375 C 51.785156 236.28125 53.722656 234.148438 53.914062 231.441406 C 57.011719 200.269531 82.953125 176.652344 114.316406 176.652344 C 136.191406 176.652344 156.324219 188.460938 167.167969 207.433594 C 168.136719 209.175781 169.878906 210.339844 171.8125 210.53125 C 173.75 210.726562 175.683594 210.144531 177.039062 208.597656 C 185.171875 200.078125 196.011719 195.238281 207.628906 195.238281 C 228.535156 195.238281 246.347656 210.917969 249.25 231.441406 C 249.445312 233.375 250.605469 234.925781 252.15625 235.894531 C 253.703125 236.859375 255.640625 237.054688 257.382812 236.472656 C 261.835938 234.925781 266.675781 234.148438 271.320312 234.148438 C 295.328125 234.148438 314.492188 253.507812 314.492188 277.128906 Z M 314.492188 277.128906 " fill-opacity="1" fill-rule="nonzero"/><g clip-path="url(#d613e2312a)"><path fill="#000000" d="M 365.214844 179.558594 C 368.699219 179.558594 371.410156 182.460938 371.410156 185.75 C 371.410156 189.238281 368.699219 191.945312 365.214844 191.945312 L 333.464844 191.945312 C 329.980469 191.945312 327.269531 189.042969 327.269531 185.75 C 327.269531 182.265625 329.980469 179.558594 333.464844 179.558594 Z M 365.214844 179.558594 " fill-opacity="1" fill-rule="nonzero"/></g><path fill="#000000" d="M 329.398438 84.503906 C 331.914062 87.019531 331.914062 90.890625 329.398438 93.40625 L 306.941406 115.863281 C 305.78125 117.027344 304.039062 117.605469 302.488281 117.605469 C 300.941406 117.605469 299.390625 117.027344 298.035156 115.863281 C 295.519531 113.347656 295.519531 109.476562 298.035156 106.960938 L 320.492188 84.503906 C 323.011719 81.984375 327.074219 81.984375 329.398438 84.503906 Z M 329.398438 84.503906 " fill-opacity="1" fill-rule="nonzero"/><g clip-path="url(#cea916b3b3)"><path fill="#000000" d="M 305.199219 233.183594 C 318.363281 243.25 326.882812 259.125 326.882812 277.128906 C 326.882812 307.523438 302.296875 332.300781 271.902344 332.496094 L 59.722656 332.496094 C 59.527344 332.496094 59.335938 332.496094 59.335938 332.496094 L 58.175781 332.496094 C 27.972656 332.300781 3.582031 307.910156 3.582031 277.902344 C 3.582031 254.089844 19.457031 232.796875 41.914062 225.824219 C 47.527344 190.398438 77.921875 164.070312 114.316406 164.070312 C 123.027344 164.070312 131.351562 165.617188 139.097656 168.523438 C 147.226562 126.320312 184.203125 95.34375 227.957031 95.34375 C 277.902344 95.34375 318.558594 136 318.558594 185.945312 C 318.75 202.789062 314.105469 219.050781 305.199219 233.183594 Z M 294.550781 226.792969 C 302.101562 214.597656 306.167969 200.464844 306.167969 185.945312 C 306.167969 142.773438 271.128906 107.734375 227.957031 107.734375 C 189.238281 107.734375 156.519531 136 150.710938 173.941406 C 159.617188 179.167969 167.554688 186.140625 173.75 194.65625 C 183.429688 187.105469 195.433594 182.652344 207.820312 182.652344 C 232.601562 182.652344 254.089844 199.496094 260.480469 222.726562 C 264.15625 221.953125 268.03125 221.566406 271.707031 221.566406 C 279.839844 221.761719 287.582031 223.503906 294.550781 226.792969 Z M 271.707031 319.914062 C 295.519531 319.71875 314.492188 300.554688 314.492188 277.128906 C 314.492188 253.507812 295.328125 234.34375 271.707031 234.34375 C 266.867188 234.34375 262.222656 235.117188 257.769531 236.667969 C 256.027344 237.246094 254.089844 237.054688 252.542969 236.085938 C 250.992188 235.117188 249.832031 233.570312 249.636719 231.632812 C 246.734375 210.917969 228.921875 195.429688 208.015625 195.429688 C 196.207031 195.429688 185.363281 200.078125 177.429688 208.789062 C 176.074219 210.339844 174.136719 210.917969 172.199219 210.726562 C 170.265625 210.53125 168.523438 209.371094 167.554688 207.628906 C 156.714844 188.65625 136.578125 176.847656 114.703125 176.847656 C 83.339844 176.847656 57.207031 200.464844 54.300781 231.632812 C 54.109375 234.34375 52.171875 236.472656 49.460938 237.054688 C 30.488281 241.3125 16.550781 258.542969 16.550781 278.097656 C 16.550781 301.328125 35.523438 320.105469 58.5625 320.105469 L 59.917969 320.105469 C 60.109375 320.105469 60.496094 320.105469 60.691406 320.105469 L 271.707031 320.105469 Z M 271.707031 319.914062 " fill-opacity="1" fill-rule="nonzero"/></g><g clip-path="url(#be3abe18d6)"><path fill="#000000" d="M 234.34375 48.6875 L 234.34375 80.4375 C 234.34375 83.921875 231.632812 86.632812 228.148438 86.632812 C 224.664062 86.632812 221.953125 83.921875 221.953125 80.4375 L 221.953125 48.6875 C 221.953125 45.203125 224.664062 42.492188 228.148438 42.492188 C 231.632812 42.492188 234.34375 45.203125 234.34375 48.6875 Z M 234.34375 48.6875 " fill-opacity="1" fill-rule="nonzero"/></g><path fill="#000000" d="M 157.875 106.960938 C 160.390625 109.476562 160.390625 113.347656 157.875 115.863281 C 156.714844 117.027344 155.164062 117.605469 153.421875 117.605469 C 151.875 117.605469 150.132812 117.027344 148.96875 115.863281 L 126.707031 93.40625 C 124.191406 90.890625 124.191406 87.019531 126.707031 84.503906 C 129.222656 81.984375 133.09375 81.984375 135.417969 84.503906 Z M 157.875 106.960938 " fill-opacity="1" fill-rule="nonzero"/><g clip-path="url(#f89dafe085)"><path fill="#000000" d="M 241.625 134.652344 C 238.675781 138.175781 214 138.175781 211.050781 134.652344 C 210.429688 134.652344 168.574219 156.769531 168.574219 156.769531 L 178.324219 179.683594 L 192.433594 177.84375 L 192.433594 240.351562 L 260.242188 240.351562 L 260.242188 177.84375 L 274.351562 179.683594 L 284.097656 156.769531 C 284.089844 156.765625 242.238281 134.648438 241.621094 134.648438 Z M 211.785156 140.050781 C 220.679688 143.933594 233.832031 143.808594 240.890625 140.050781 C 236.65625 150.589844 219.328125 152.316406 211.785156 140.050781 Z M 211.785156 140.050781 " fill-opacity="1" fill-rule="evenodd"/></g><g clip-path="url(#02caf2c33f)"><path fill="#000000" d="M 241.480469 134.652344 C 238.53125 138.175781 213.855469 138.175781 210.90625 134.652344 C 210.285156 134.652344 168.429688 156.769531 168.429688 156.769531 L 178.179688 179.683594 L 192.289062 177.84375 L 192.289062 240.351562 L 260.097656 240.351562 L 260.097656 177.84375 L 274.207031 179.683594 L 283.953125 156.769531 C 283.945312 156.765625 242.09375 134.648438 241.476562 134.648438 Z M 211.640625 140.050781 C 220.535156 143.933594 233.6875 143.808594 240.746094 140.050781 C 236.511719 150.589844 219.183594 152.316406 211.640625 140.050781 Z M 211.640625 140.050781 " fill-opacity="1" fill-rule="evenodd"/></g><g clip-path="url(#2119b59323)"><path fill="#000000" d="M 241.414062 134.652344 C 238.460938 138.175781 213.789062 138.175781 210.835938 134.652344 C 210.21875 134.652344 168.363281 156.769531 168.363281 156.769531 L 178.109375 179.683594 L 192.222656 177.84375 L 192.222656 240.351562 L 260.03125 240.351562 L 260.03125 177.84375 L 274.140625 179.683594 L 283.886719 156.769531 C 283.878906 156.765625 242.027344 134.648438 241.40625 134.648438 Z M 211.570312 140.050781 C 220.46875 143.933594 233.621094 143.808594 240.679688 140.050781 C 236.445312 150.589844 219.117188 152.316406 211.570312 140.050781 Z M 211.570312 140.050781 " fill-opacity="1" fill-rule="evenodd"/></g><g clip-path="url(#35756914ac)"><path fill="#000000" d="M 241.625 134.652344 C 238.675781 138.175781 214 138.175781 211.050781 134.652344 C 210.429688 134.652344 168.574219 156.769531 168.574219 156.769531 L 178.324219 179.683594 L 192.433594 177.84375 L 192.433594 240.351562 L 260.242188 240.351562 L 260.242188 177.84375 L 274.351562 179.683594 L 284.097656 156.769531 C 284.089844 156.765625 242.238281 134.648438 241.621094 134.648438 Z M 211.785156 140.050781 C 220.679688 143.933594 233.832031 143.808594 240.890625 140.050781 C 236.65625 150.589844 219.328125 152.316406 211.785156 140.050781 Z M 211.785156 140.050781 " fill-opacity="1" fill-rule="evenodd"/></g></svg>